<svg xmlns="http://www.w3.org/2000/svg" viewBox="0 0 640 260" width="640" height="260" role="img" aria-label="Матрица рисков по вероятности и влиянию"><rect width="640" height="260" fill="#F4E7D3"/><line x1="182" y1="40" x2="182" y2="216" stroke="#1B3A5C" stroke-width="3"/><line x1="182" y1="216" x2="470" y2="216" stroke="#1B3A5C" stroke-width="3"/><rect x="200" y="48" width="54" height="32" rx="5" fill="#FFFFFF" stroke="#C9B896" stroke-width="1.5"/><rect x="262" y="48" width="54" height="32" rx="5" fill="#FFFFFF" stroke="#C9B896" stroke-width="1.5"/><rect x="324" y="48" width="54" height="32" rx="5" fill="#FFFFFF" stroke="#C9B896" stroke-width="1.5"/><rect x="386" y="48" width="54" height="32" rx="5" fill="#FFFFFF" stroke="#C9B896" stroke-width="1.5"/><rect x="200" y="88" width="54" height="32" rx="5" fill="#FFFFFF" stroke="#C9B896" stroke-width="1.5"/><rect x="262" y="88" width="54" height="32" rx="5" fill="#FFFFFF" stroke="#C9B896" stroke-width="1.5"/><rect x="324" y="88" width="54" height="32" rx="5" fill="#FFFFFF" stroke="#C9B896" stroke-width="1.5"/><rect x="386" y="88" width="54" height="32" rx="5" fill="#E8D6B6" stroke="#C9B896" stroke-width="1.5"/><rect x="200" y="128" width="54" height="32" rx="5" fill="#FFFFFF" stroke="#C9B896" stroke-width="1.5"/><rect x="262" y="128" width="54" height="32" rx="5" fill="#FFFFFF" stroke="#C9B896" stroke-width="1.5"/><rect x="324" y="128" width="54" height="32" rx="5" fill="#E8D6B6" stroke="#C9B896" stroke-width="1.5"/><rect x="386" y="128" width="54" height="32" rx="5" fill="#C4571C" stroke="#C9B896" stroke-width="1.5"/><rect x="200" y="168" width="54" height="32" rx="5" fill="#FFFFFF" stroke="#C9B896" stroke-width="1.5"/><rect x="262" y="168" width="54" height="32" rx="5" fill="#E8D6B6" stroke="#C9B896" stroke-width="1.5"/><rect x="324" y="168" width="54" height="32" rx="5" fill="#C4571C" stroke="#C9B896" stroke-width="1.5"/><rect x="386" y="168" width="54" height="32" rx="5" fill="#C4571C" stroke="#C9B896" stroke-width="1.5"/></svg>